<svg width="24" height="24" viewBox="0 0 24 24" fill="none" xmlns="http://www.w3.org/2000/svg">
<path fill-rule="evenodd" clip-rule="evenodd" d="M12.5113 3.77368C10.5062 3.64821 8.5243 4.25901 6.93772 5.4914C5.35113 6.72378 4.26901 8.49297 3.89454 10.4667C3.52087 12.4363 3.87751 14.4744 4.89747 16.2C5.00537 16.3751 5.03951 16.5919 4.98016 16.7996L4.09204 19.908L3.37089 19.702L4.09204 19.908L7.20047 19.0199C7.40511 18.9614 7.62234 18.9932 7.79964 19.1023C9.52526 20.1225 11.5636 20.4792 13.5334 20.1055C15.5071 19.731 17.2763 18.6489 18.5087 17.0623C19.7411 15.4757 20.3519 13.4938 20.2264 11.4887C20.1009 9.48369 19.2478 7.5934 17.8272 6.17283C16.4066 4.75227 14.5163 3.89915 12.5113 3.77368ZM7.309 20.5489C9.28872 21.6349 11.5878 22.0014 13.813 21.5792C16.1458 21.1366 18.2368 19.8577 19.6933 17.9825C21.1499 16.1073 21.8718 13.7648 21.7234 11.3951C21.5751 9.02527 20.5668 6.79113 18.8879 5.11217C17.2089 3.4332 14.9747 2.4249 12.605 2.27661C10.2352 2.12831 7.89275 2.85022 6.01756 4.30678C4.14238 5.76334 2.86341 7.85434 2.42083 10.1872C1.99868 12.4123 2.36516 14.7113 3.45115 16.6911L2.64975 19.4959C2.57626 19.7531 2.57289 20.0253 2.63999 20.2843C2.70709 20.5432 2.84222 20.7795 3.03138 20.9687C3.22053 21.1578 3.45683 21.293 3.71578 21.3601C3.97473 21.4272 4.24691 21.4238 4.50412 21.3503L7.309 20.5489Z" fill="#111112"/>
</svg>
