<svg width="224" height="48" viewBox="0 0 224 48" fill="none" xmlns="http://www.w3.org/2000/svg">
<path d="M51.7045 33.8708L59.1136 14.3037H61.9719L69.3532 33.8708H66.7723L64.7188 28.5876H56.2556L54.2021 33.8708H51.7045ZM56.9772 26.3792H63.9983L60.4739 16.9594L56.9772 26.3792Z" fill="black"/>
<path d="M80.0776 19.6155H82.3531V33.8714H80.3827L80.0776 31.9705C79.245 33.0327 77.8852 34.0391 75.5542 34.0391C72.4461 34.0391 69.9762 32.2785 69.9762 27.5544V19.6155H72.2517V27.4145C72.2517 30.3772 73.5837 31.943 75.9426 31.943C78.5234 31.943 80.0776 29.9583 80.0776 26.7436V19.6155Z" fill="black"/>
<path d="M85.9936 21.7109H83.4411V19.6143H85.9936V15.617H88.2692V19.6143H91.9324V21.7109H88.2692V30.125C88.2692 31.3265 88.6855 31.7742 89.9065 31.7742H92.1544V33.8708H89.6845C86.965 33.8708 85.9936 32.6687 85.9936 30.1528V21.7109Z" fill="black"/>
<path d="M106.082 25.932V33.8708H103.806V26.0718C103.806 23.1092 102.391 21.5432 99.9491 21.5432C97.3128 21.5432 95.6755 23.5275 95.6755 26.7421V33.8704H93.3999V14.3037H95.6755V21.963C96.5081 20.6213 97.951 19.4468 100.338 19.4468C103.501 19.4468 106.082 21.2078 106.082 25.932Z" fill="black"/>
<path d="M108.197 23.6403C108.197 18.0775 111.194 14.136 115.578 14.136C119.935 14.136 122.932 18.0775 122.932 23.6403V24.5348C122.932 30.3766 119.935 34.0385 115.578 34.0385C111.194 34.0385 108.197 30.3766 108.197 24.5348V23.6403ZM120.573 23.7241C120.573 19.0838 118.575 16.2884 115.578 16.2884C112.554 16.2884 110.556 19.0838 110.556 23.7241V24.4509C110.556 29.0913 112.554 31.8865 115.578 31.8865C118.576 31.8865 120.573 29.0913 120.573 24.4509V23.7241Z" fill="black"/>
<path d="M146.047 26.7426C146.047 31.1035 143.162 34.0385 139.249 34.0385C136.862 34.0385 135.252 33.0607 134.393 31.691L134.087 33.8708H132.117V14.3037H134.393V21.9066C135.336 20.5923 136.862 19.4468 139.249 19.4468C143.161 19.4468 146.047 22.1029 146.047 26.7426ZM143.716 26.7426C143.716 23.6398 141.829 21.4878 139.026 21.4878C136.251 21.4878 134.364 23.6403 134.364 26.6872C134.364 29.8175 136.251 31.9985 139.026 31.9985C141.829 31.998 143.716 29.8455 143.716 26.7426Z" fill="black"/>
<path d="M145.959 19.6151H148.373L152.731 30.9918L156.948 19.6151H159.362L152.841 36.2751C151.954 38.5672 151.426 39.4613 149.428 39.4613H146.708V37.3648H148.733C150.038 37.3648 150.26 37.0293 150.787 35.6876L151.481 33.9544L145.959 19.6151Z" fill="black"/>
<path d="M176.371 34.0397C170.903 34.0397 167.102 29.8472 167.102 24.0887C167.102 18.3306 170.903 14.1376 176.371 14.1376C181.838 14.1376 185.639 18.3306 185.639 24.0887C185.639 29.8467 181.838 34.0397 176.371 34.0397ZM176.371 31.8034C180.422 31.8034 183.17 28.5887 183.17 24.0882C183.17 19.5876 180.422 16.3729 176.371 16.3729C172.319 16.3729 169.572 19.5876 169.572 24.0882C169.572 28.5887 172.319 31.8034 176.371 31.8034Z" fill="black"/>
<path d="M187.912 14.3037H190.188V27.1899L197.292 19.6145H200.094L194.572 25.5122L200.484 33.8704H197.736L193.046 27.1614L190.188 30.1245V33.8699H187.912V14.3037Z" fill="black"/>
<path d="M203.226 21.7109H200.674V19.6143H203.226V15.617H205.502V19.6143H209.165V21.7109H205.502V30.125C205.502 31.3265 205.917 31.7742 207.14 31.7742H209.387V33.8708H206.916C204.198 33.8708 203.226 32.6687 203.226 30.1528V21.7109Z" fill="black"/>
<path d="M224 31.7752V33.8718H222.752C220.865 33.8718 220.226 33.061 220.199 31.6634C219.311 32.9492 217.896 34.0395 215.454 34.0395C212.345 34.0395 210.236 32.474 210.236 29.8743C210.236 27.023 212.206 25.4297 215.925 25.4297H220.088V24.4514C220.088 22.6069 218.784 21.4888 216.564 21.4888C214.566 21.4888 213.233 22.4392 212.956 23.8927H210.68C211.013 21.097 213.262 19.4476 216.675 19.4476C220.283 19.4476 222.364 21.2652 222.364 24.5912V30.8248C222.364 31.5796 222.641 31.7757 223.279 31.7757L224 31.7752ZM220.088 27.3586H215.703C213.678 27.3586 212.539 28.1133 212.539 29.7347C212.539 31.1323 213.733 32.0827 215.62 32.0827C218.451 32.0827 220.088 30.4335 220.088 28.0574V27.3586Z" fill="black"/>
<path d="M2.51674 20.8424C10.33 19.5459 16.4497 13.0393 17.7367 5.17387L18.1675 1.39044C18.2727 0.788033 17.8707 -0.0458089 17.1147 0.0120175C11.2105 0.474694 5.64592 2.43631 2.54071 3.71354C1.00475 4.34479 0 5.8534 0 7.52581V19.864C0 20.5965 0.650719 21.1508 1.36843 21.0351L2.51674 20.8471V20.8424Z" fill="black"/>
<path d="M21.5034 5.16936C22.7905 13.0398 28.91 19.5416 36.7235 20.8379L37.8718 21.0259C38.5895 21.1464 39.2401 20.5874 39.2401 19.8548V7.5166C39.2401 5.84419 38.2353 4.34044 36.6995 3.70433C33.599 2.4271 28.0297 0.4655 22.1254 0.00282358C21.3694 -0.0550191 20.9771 0.788381 21.0679 1.38123L21.4985 5.16466L21.5034 5.16936Z" fill="black"/>
<path d="M36.718 24.2934C26.0433 26.414 21.0864 33.5615 21.0864 47.0949C21.0864 47.7746 21.7563 48.242 22.3161 47.8661C27.2253 44.5309 38.0289 35.8268 39.1438 24.9343C39.1869 23.5609 37.4835 24.2067 36.718 24.2934Z" fill="black"/>
<path d="M2.52043 24.2937C13.1951 26.4143 18.152 33.5618 18.152 47.0952C18.152 47.7747 17.4821 48.2422 16.9223 47.8663C12.0133 44.5312 1.2095 35.8269 0.0946465 24.9347C0.0515869 23.561 1.75494 24.2069 2.52043 24.2937Z" fill="black"/>
</svg>
