<svg width="24" height="24" viewBox="0 0 24 24" fill="none" xmlns="http://www.w3.org/2000/svg">
<path fill-rule="evenodd" clip-rule="evenodd" d="M2.25 3C2.25 2.58579 2.58579 2.25 3 2.25H12C12.4142 2.25 12.75 2.58579 12.75 3C12.75 3.41421 12.4142 3.75 12 3.75H3.75V20.25H12C12.4142 20.25 12.75 20.5858 12.75 21C12.75 21.4142 12.4142 21.75 12 21.75H3C2.58579 21.75 2.25 21.4142 2.25 21V3Z" fill="#111112"/>
<path fill-rule="evenodd" clip-rule="evenodd" d="M15.9697 6.96967C16.2626 6.67678 16.7374 6.67678 17.0303 6.96967L21.5303 11.4697C21.8232 11.7626 21.8232 12.2374 21.5303 12.5303L17.0303 17.0303C16.7374 17.3232 16.2626 17.3232 15.9697 17.0303C15.6768 16.7374 15.6768 16.2626 15.9697 15.9697L19.1893 12.75H8C7.58579 12.75 7.25 12.4142 7.25 12C7.25 11.5858 7.58579 11.25 8 11.25H19.1893L15.9697 8.03033C15.6768 7.73744 15.6768 7.26256 15.9697 6.96967Z" fill="#111112"/>
</svg>
