<svg width="24" height="24" viewBox="0 0 24 24" fill="none" xmlns="http://www.w3.org/2000/svg">
<path d="M21.8405 13.7835L21.0004 12.523V11.4771L21.8398 10.218C21.9638 10.0321 22.0456 9.82122 22.0792 9.60026C22.1129 9.3793 22.0977 9.15364 22.0346 8.93921C21.838 8.29185 21.579 7.66512 21.2611 7.06788C21.1551 6.87146 21.0068 6.701 20.827 6.56878C20.6471 6.43656 20.4402 6.34586 20.2211 6.30323L18.7343 6.00586L17.9945 5.26612L17.6972 3.7793C17.6546 3.55989 17.5638 3.3527 17.4313 3.1727C17.2988 2.9927 17.1279 2.8444 16.9311 2.73853C16.3344 2.42135 15.7084 2.16258 15.0619 1.96582C14.8477 1.90173 14.6219 1.8859 14.4008 1.91946C14.1796 1.95302 13.9687 2.03514 13.7831 2.15992L12.5234 3H11.4775L10.217 2.15992C10.0317 2.03491 9.82105 1.95265 9.60014 1.91908C9.37922 1.88552 9.1536 1.90148 8.93962 1.96582C8.29225 2.16239 7.66552 2.42142 7.06828 2.73926C6.87158 2.84495 6.7009 2.99313 6.56864 3.17303C6.43637 3.35293 6.34584 3.56004 6.30363 3.7793L6.00627 5.26612L5.26652 6.00586L3.77824 6.30323C3.55907 6.34571 3.35211 6.43643 3.17235 6.56882C2.99259 6.7012 2.84454 6.87192 2.73893 7.06861C2.42147 7.66552 2.16245 8.29172 1.96549 8.93848C1.90125 9.1526 1.88534 9.37832 1.9189 9.59933C1.95246 9.82035 2.03467 10.0312 2.15959 10.2166L3.00041 11.4771V12.523L2.15885 13.7842C2.03419 13.9696 1.95219 14.1803 1.91875 14.4011C1.88532 14.622 1.90128 14.8476 1.96549 15.0615C2.16219 15.7079 2.42122 16.3336 2.73893 16.9299C2.84431 17.1271 2.99236 17.2982 3.17229 17.4309C3.35221 17.5636 3.55948 17.6544 3.77897 17.6968L5.26652 17.9941L6.00627 18.7339L6.30363 20.22C6.34538 20.4396 6.43572 20.6471 6.56802 20.8273C6.70032 21.0075 6.87124 21.1559 7.06828 21.2615C7.66498 21.579 8.29123 21.8376 8.93815 22.0335C9.15217 22.0991 9.37822 22.1158 9.59957 22.0823C9.82092 22.0489 10.0319 21.9661 10.217 21.8401L11.4775 21H12.5234L13.7831 21.8401C14.0331 22.0081 14.3272 22.0983 14.6283 22.0994C14.7753 22.0992 14.9214 22.0772 15.0619 22.0342C15.7082 21.8376 16.334 21.5788 16.9303 21.2615C17.1276 21.1563 17.2987 21.0083 17.4313 20.8283C17.5639 20.6483 17.6545 20.441 17.6964 20.2214L17.9938 18.7339L18.7343 17.9941L20.2218 17.6968C20.4411 17.6539 20.648 17.563 20.8279 17.4305C21.0077 17.298 21.156 17.1273 21.2619 16.9307C21.5793 16.3341 21.8381 15.7081 22.0346 15.0615C22.0977 14.8473 22.113 14.6218 22.0795 14.4009C22.0459 14.1801 21.9644 13.9693 21.8405 13.7835ZM12.0001 16.5001C11.1101 16.5001 10.2401 16.2362 9.50007 15.7417C8.76005 15.2472 8.18327 14.5444 7.84268 13.7222C7.50208 12.8999 7.41297 11.9951 7.5866 11.1222C7.76023 10.2493 8.18882 9.44745 8.81815 8.81812C9.44749 8.18878 10.2493 7.7602 11.1222 7.58657C11.9951 7.41293 12.8999 7.50205 13.7222 7.84264C14.5445 8.18324 15.2473 8.76001 15.7417 9.50003C16.2362 10.2401 16.5001 11.1101 16.5001 12.0001C16.5001 13.1936 16.026 14.3382 15.1821 15.1821C14.3382 16.026 13.1936 16.5001 12.0001 16.5001Z" fill="white"/>
</svg>
